<?xml version="1.0" encoding="utf-8"?>
<!-- Generator: Adobe Illustrator 23.0.3, SVG Export Plug-In . SVG Version: 6.00 Build 0)  -->
<svg version="1.1" id="Layer_1" xmlns="http://www.w3.org/2000/svg" xmlns:xlink="http://www.w3.org/1999/xlink" x="0px" y="0px"
	 viewBox="0 0 613.93 369.35" style="enable-background:new 0 0 613.93 369.35;" xml:space="preserve">
<style type="text/css">
	.st0{fill:#131313;}
</style>
<path class="st0" d="M552.63,63.03c-13.55-15.08-30.38-26.88-50.47-35.4c-20.11-8.52-43.04-12.78-68.82-12.78
	c-24.48,0-46.87,4.59-67.19,13.77c-20.32,9.17-37.91,21.53-52.77,37.03c-2.25,2.35-4.27,4.87-6.37,7.34
	c-2.1-2.47-4.13-4.99-6.37-7.34c-14.85-15.51-32.45-27.86-52.77-37.03c-20.32-9.18-42.71-13.77-67.19-13.77
	c-25.78,0-48.72,4.26-68.82,12.78c-20.09,8.52-36.92,20.32-50.47,35.4C47.85,78.1,37.59,95.91,30.59,116.45
	c-6.98,20.54-10.49,42.83-10.49,66.86c0,3.06,0,5.68,0,7.87c0.44,2.62,0.65,5.03,0.65,7.21c0.44,2.19,0.66,4.59,0.66,7.21h241.87
	c-1.74,13.11-5.35,24.37-10.82,33.76c-5.46,9.4-12.23,17.27-20.32,23.6c-8.08,6.34-16.93,10.93-26.54,13.77
	c-9.61,2.85-19.44,4.26-29.5,4.26c-19.66,0-35.94-4.48-48.83-13.44c-12.88-8.95-23.04-20.21-30.48-33.76l-71.45,35.39
	c14.86,26.22,34.85,47.42,59.97,63.58c25.13,16.16,55.83,24.25,92.1,24.25c24.48,0,47.09-4.26,67.84-12.78
	c20.76-8.52,38.78-20.42,54.07-35.72c2.71-2.71,5.19-5.61,7.68-8.5c2.5,2.88,4.97,5.78,7.68,8.5c15.29,15.3,33.32,27.2,54.07,35.72
	c20.75,8.52,43.36,12.78,67.84,12.78c36.27,0,66.96-8.09,92.1-24.25c25.12-16.16,45.11-37.36,59.97-63.58l-71.45-35.39
	c-7.43,13.55-17.59,24.8-30.48,33.76c-12.9,8.96-29.17,13.44-48.83,13.44c-10.06,0-19.89-1.41-29.5-4.26
	c-9.62-2.84-18.46-7.43-26.54-13.77c-8.09-6.33-14.86-14.19-20.32-23.6c-5.47-9.39-9.07-20.65-10.82-33.76h241.87
	c0-2.62,0.21-5.02,0.66-7.21c0-2.18,0.21-4.59,0.65-7.21c0-2.18,0-4.8,0-7.87c0-24.03-3.5-46.31-10.49-66.86
	C576.44,95.91,566.17,78.1,552.63,63.03z M104.62,143.37c0.44-5.67,2.29-12.01,5.57-19.01c3.28-6.99,8.09-13.54,14.42-19.67
	c6.34-6.11,14.21-11.14,23.6-15.07c9.4-3.93,20.65-5.9,33.76-5.9c18.35,0,34.53,5.24,48.5,15.73c13.99,10.49,23.82,25.13,29.5,43.92
	H104.62z M352.64,143.37c5.67-18.78,15.51-33.43,29.5-43.92c13.98-10.49,30.15-15.73,48.5-15.73c13.11,0,24.36,1.97,33.76,5.9
	c9.39,3.93,17.26,8.96,23.6,15.07c6.33,6.13,11.14,12.68,14.42,19.67c3.28,6.99,5.13,13.33,5.57,19.01H352.64z"/>
</svg>
