<?xml version="1.0" encoding="utf-8"?>
<!-- Generator: Adobe Illustrator 23.0.3, SVG Export Plug-In . SVG Version: 6.00 Build 0)  -->
<svg version="1.1" id="Layer_1" xmlns="http://www.w3.org/2000/svg" xmlns:xlink="http://www.w3.org/1999/xlink" x="0px" y="0px"
	 viewBox="0 0 999.93 369.35" style="enable-background:new 0 0 999.93 369.35;" xml:space="preserve">
<style type="text/css">
	.st0{fill:none;stroke:#131313;stroke-width:6;stroke-miterlimit:10;}
</style>
<g>
	<path class="st0" d="M117.43,63.57c3.99-4.5,9.4-6.75,16.21-6.75c3.99,0,7.34,0.37,10.04,1.09c2.7,0.73,5.23,1.7,7.58,2.92
		l13.04-42.68c-4.46-1.94-9.52-3.52-15.16-4.74c-5.64-1.22-11.75-1.83-18.33-1.83c-9.64,0-18.45,1.52-26.43,4.56
		c-7.99,3.04-14.93,7.42-20.8,13.13C77.72,35,73.2,42.05,70.03,50.44c-3.17,8.39-4.76,18.06-4.76,29v17.51H30.64v42.32h34.63v138.52
		h46.17V139.27h46.17V96.95h-46.17V82.36C111.44,74.33,113.44,68.07,117.43,63.57z"/>
	<path class="st0" d="M461.69,121.49c-7.54-8.39-16.91-14.96-28.09-19.7c-11.19-4.74-23.96-7.11-38.3-7.11
		c-13.62,0-26.08,2.55-37.39,7.66c-11.31,5.11-21.1,11.98-29.37,20.61c-1.25,1.31-2.38,2.71-3.55,4.08
		c-1.17-1.37-2.3-2.78-3.55-4.08c-8.27-8.63-18.06-15.5-29.37-20.61c-11.31-5.11-23.77-7.66-37.39-7.66
		c-14.35,0-27.11,2.37-38.3,7.11c-11.18,4.74-20.55,11.31-28.09,19.7c-7.54,8.39-13.25,18.3-17.15,29.73
		c-3.89,11.43-5.84,23.84-5.84,37.21c0,1.7,0,3.16,0,4.38c0.24,1.46,0.36,2.8,0.36,4.01c0.25,1.22,0.37,2.55,0.37,4.01h134.61
		c-0.97,7.29-2.98,13.56-6.02,18.79c-3.04,5.23-6.8,9.61-11.31,13.13c-4.5,3.53-9.42,6.08-14.77,7.66
		c-5.35,1.58-10.82,2.37-16.42,2.37c-10.94,0-20-2.49-27.18-7.48c-7.17-4.98-12.83-11.25-16.96-18.79l-39.76,19.7
		c8.27,14.59,19.4,26.39,33.38,35.39c13.99,8.99,31.07,13.5,51.26,13.5c13.62,0,26.21-2.37,37.76-7.11
		c11.55-4.74,21.58-11.37,30.09-19.88c1.51-1.51,2.89-3.12,4.28-4.73c1.39,1.6,2.77,3.22,4.28,4.73
		c8.51,8.52,18.54,15.14,30.09,19.88c11.55,4.74,24.13,7.11,37.76,7.11c20.18,0,37.27-4.5,51.26-13.5
		c13.98-9,25.11-20.79,33.38-35.39l-39.76-19.7c-4.14,7.54-9.79,13.8-16.96,18.79c-7.18,4.99-16.23,7.48-27.18,7.48
		c-5.6,0-11.07-0.79-16.42-2.37c-5.35-1.58-10.28-4.13-14.77-7.66c-4.5-3.52-8.27-7.9-11.31-13.13c-3.04-5.23-5.05-11.49-6.02-18.79
		h134.61c0-1.46,0.12-2.79,0.37-4.01c0-1.21,0.12-2.55,0.36-4.01c0-1.21,0-2.67,0-4.38c0-13.37-1.95-25.78-5.84-37.21
		C474.94,139.79,469.22,129.88,461.69,121.49z M212.35,166.21c0.25-3.16,1.28-6.69,3.1-10.58c1.82-3.89,4.5-7.54,8.02-10.95
		c3.53-3.4,7.91-6.2,13.13-8.39c5.23-2.19,11.49-3.28,18.79-3.28c10.21,0,19.21,2.92,26.99,8.75c7.79,5.84,13.26,13.99,16.42,24.44
		H212.35z M350.38,166.21c3.16-10.45,8.63-18.6,16.42-24.44c7.78-5.84,16.78-8.75,26.99-8.75c7.3,0,13.56,1.09,18.79,3.28
		c5.23,2.19,9.61,4.99,13.13,8.39c3.52,3.41,6.2,7.06,8.02,10.95c1.83,3.89,2.86,7.42,3.1,10.58H350.38z"/>
	<polygon class="st0" points="860.83,100.8 817.67,208.53 815.13,208.53 770.15,100.8 715.44,100.8 790.66,270.96 750.86,358.59 
		802.35,358.59 914.45,100.8 	"/>
	<path class="st0" d="M646.27,94.73v25.58c-4.23-7.55-10.81-14.01-19.74-19.37c-8.93-5.36-19.97-8.04-33.13-8.04
		c-11.05,0-21.56,2.38-31.55,7.13c-9.99,4.75-18.8,11.33-26.44,19.74c-7.64,8.41-13.69,18.46-18.15,30.15
		c-4.47,11.7-6.7,24.49-6.7,38.38c0,13.89,2.23,26.68,6.7,38.38c4.46,11.7,10.51,21.75,18.15,30.15
		c7.63,8.41,16.44,14.98,26.44,19.74c9.98,4.75,20.5,7.13,31.55,7.13c13.16,0,24.2-2.68,33.13-8.04
		c8.93-5.36,15.51-11.82,19.74-19.37l0,21.51l46.17,0.06V16.15h-46.17V94.73z M644.77,210.47c-2.68,6.33-6.2,11.67-10.58,16.05
		c-4.38,4.38-9.43,7.72-15.14,10.03c-5.72,2.32-11.74,3.47-18.06,3.47c-6.33,0-12.35-1.21-18.06-3.65
		c-5.72-2.43-10.76-5.84-15.14-10.21c-4.38-4.38-7.9-9.72-10.58-16.05c-2.68-6.32-4.01-13.37-4.01-21.16
		c0-7.78,1.33-14.83,4.01-21.16c2.67-6.32,6.2-11.67,10.58-16.05c4.38-4.38,9.42-7.78,15.14-10.21c5.71-2.43,11.73-3.65,18.06-3.65
		c6.32,0,12.34,1.16,18.06,3.47c5.71,2.31,10.76,5.65,15.14,10.03c4.38,4.38,7.9,9.73,10.58,16.05c2.67,6.33,4.01,13.5,4.01,21.52
		C648.78,196.97,647.45,204.15,644.77,210.47z"/>
	<path class="st0" d="M960.95,226.75c-6.09-5.88-13.51-8.82-22.27-8.82c-8.76,0-16.25,2.94-22.46,8.82
		c-6.21,5.88-9.31,13.04-9.31,21.5c0,8.46,3.1,15.69,9.31,21.68s13.7,8.99,22.46,8.99c8.76,0,16.19-2.99,22.27-8.99
		c6.08-5.99,9.13-13.22,9.13-21.68C970.08,239.8,967.04,232.63,960.95,226.75z"/>
</g>
</svg>
