<?xml version="1.0" encoding="utf-8"?>
<!-- Generator: Adobe Illustrator 23.0.3, SVG Export Plug-In . SVG Version: 6.00 Build 0)  -->
<svg version="1.1" id="Layer_1" xmlns="http://www.w3.org/2000/svg" xmlns:xlink="http://www.w3.org/1999/xlink" x="0px" y="0px"
	 viewBox="0 0 999.93 369.35" style="enable-background:new 0 0 999.93 369.35;" xml:space="preserve">
<style type="text/css">
	.st0{fill:#131313;}
</style>
<g>
	<g>
		<path class="st0" d="M93.11,55.85c4.25-4.78,9.99-7.18,17.24-7.18c4.24,0,7.81,0.39,10.68,1.16c2.87,0.78,5.56,1.81,8.06,3.1
			l13.87-45.39c-4.75-2.07-10.12-3.75-16.12-5.04c-6-1.29-12.5-1.94-19.49-1.94c-10.25,0-19.62,1.62-28.11,4.85
			c-8.5,3.24-15.87,7.89-22.12,13.97c-6.25,6.08-11.06,13.58-14.43,22.5c-3.37,8.92-5.06,19.2-5.06,30.84v18.62H0.8v45.01h36.83
			v147.32h49.11V136.36h49.11V91.35H86.74V75.83C86.74,67.29,88.86,60.64,93.11,55.85z"/>
		<path class="st0" d="M459.23,117.45c-8.02-8.92-17.98-15.91-29.87-20.95c-11.9-5.04-25.48-7.57-40.74-7.57
			c-14.49,0-27.74,2.72-39.77,8.15c-12.03,5.43-22.44,12.74-31.23,21.92c-1.33,1.39-2.53,2.88-3.77,4.34
			c-1.24-1.46-2.44-2.95-3.77-4.34c-8.79-9.18-19.2-16.49-31.23-21.92c-12.03-5.43-25.28-8.15-39.77-8.15
			c-15.26,0-28.84,2.52-40.74,7.57c-11.89,5.04-21.85,12.03-29.87,20.95c-8.01,8.92-14.09,19.46-18.23,31.62
			c-4.13,12.16-6.21,25.35-6.21,39.57c0,1.81,0,3.36,0,4.66c0.26,1.55,0.39,2.98,0.39,4.27c0.26,1.3,0.39,2.72,0.39,4.27h143.16
			c-1.03,7.76-3.16,14.42-6.4,19.98c-3.23,5.57-7.24,10.22-12.03,13.97c-4.78,3.75-10.02,6.47-15.71,8.15
			c-5.69,1.69-11.51,2.52-17.46,2.52c-11.64,0-21.27-2.65-28.9-7.95c-7.63-5.3-13.64-11.96-18.04-19.98l-42.29,20.95
			c8.8,15.52,20.63,28.07,35.5,37.63c14.88,9.56,33.04,14.36,54.51,14.36c14.49,0,27.87-2.52,40.16-7.57
			c12.29-5.04,22.96-12.09,32.01-21.14c1.61-1.6,3.07-3.32,4.55-5.03c1.48,1.71,2.94,3.42,4.55,5.03
			c9.05,9.06,19.72,16.1,32.01,21.14c12.28,5.04,25.67,7.57,40.16,7.57c21.47,0,39.63-4.79,54.51-14.36
			c14.87-9.57,26.7-22.12,35.5-37.63l-42.29-20.95c-4.4,8.02-10.41,14.68-18.04,19.98c-7.63,5.3-17.27,7.95-28.9,7.95
			c-5.95,0-11.77-0.84-17.46-2.52c-5.69-1.68-10.93-4.4-15.71-8.15c-4.79-3.75-8.8-8.4-12.03-13.97c-3.24-5.56-5.37-12.22-6.4-19.98
			H482.9c0-1.55,0.13-2.97,0.39-4.27c0-1.29,0.13-2.71,0.39-4.27c0-1.29,0-2.84,0-4.66c0-14.22-2.07-27.41-6.21-39.57
			C473.32,136.92,467.25,126.37,459.23,117.45z M194.05,165.01c0.26-3.36,1.36-7.11,3.3-11.25c1.94-4.14,4.79-8.01,8.53-11.64
			c3.75-3.62,8.41-6.59,13.97-8.92c5.56-2.33,12.22-3.49,19.98-3.49c10.86,0,20.44,3.1,28.71,9.31c8.28,6.21,14.1,14.88,17.46,25.99
			H194.05z M340.86,165.01c3.36-11.12,9.18-19.79,17.46-25.99c8.27-6.21,17.85-9.31,28.71-9.31c7.76,0,14.42,1.16,19.98,3.49
			c5.56,2.33,10.22,5.3,13.97,8.92c3.75,3.63,6.59,7.5,8.53,11.64c1.94,4.14,3.04,7.89,3.3,11.25H340.86z"/>
		<polygon class="st0" points="883.74,95.44 837.83,210.02 835.13,210.02 787.29,95.44 729.11,95.44 809.11,276.41 766.78,369.61 
			821.53,369.61 940.76,95.44 		"/>
		<path class="st0" d="M655.54,88.99v27.21c-4.5-8.03-11.5-14.9-20.99-20.6c-9.5-5.7-21.24-8.55-35.24-8.55
			c-11.75,0-22.93,2.53-33.55,7.58c-10.63,5.05-20,12.05-28.11,20.99c-8.13,8.94-14.56,19.63-19.31,32.07
			c-4.75,12.44-7.12,26.04-7.12,40.82c0,14.77,2.37,28.38,7.12,40.82c4.74,12.44,11.18,23.13,19.31,32.07
			c8.12,8.94,17.49,15.94,28.11,20.99c10.62,5.05,21.8,7.58,33.55,7.58c13.99,0,25.74-2.85,35.24-8.55
			c9.49-5.7,16.49-12.57,20.99-20.6l0,22.87l49.11,0.06V5.41h-49.11V88.99z M653.95,212.08c-2.85,6.73-6.6,12.42-11.25,17.07
			c-4.66,4.66-10.03,8.21-16.1,10.67c-6.08,2.46-12.48,3.69-19.2,3.69c-6.73,0-13.13-1.29-19.2-3.88
			c-6.08-2.58-11.45-6.21-16.1-10.86c-4.66-4.66-8.41-10.34-11.25-17.07c-2.85-6.72-4.27-14.22-4.27-22.5
			c0-8.28,1.42-15.77,4.27-22.5c2.84-6.72,6.59-12.41,11.25-17.07c4.66-4.66,10.02-8.28,16.1-10.86c6.07-2.58,12.48-3.88,19.2-3.88
			c6.72,0,13.12,1.23,19.2,3.69c6.07,2.46,11.44,6.01,16.1,10.67c4.66,4.66,8.4,10.35,11.25,17.07c2.84,6.73,4.27,14.35,4.27,22.89
			C658.21,197.73,656.79,205.36,653.95,212.08z"/>
		<path class="st0" d="M990.21,229.4c-6.47-6.25-14.37-9.38-23.69-9.38s-17.28,3.13-23.89,9.38c-6.6,6.25-9.9,13.87-9.9,22.87
			c0,9,3.3,16.69,9.9,23.06c6.6,6.37,14.57,9.56,23.89,9.56s17.22-3.18,23.69-9.56c6.47-6.37,9.71-14.06,9.71-23.06
			C999.93,243.27,996.68,235.65,990.21,229.4z"/>
	</g>
</g>
</svg>
